<svg width="160" height="160" viewBox="0 0 160 160" fill="none" xmlns="http://www.w3.org/2000/svg">
<path d="M43.824 51.4314H37.3926V70.7255H43.824V51.4314Z" fill="#F27CCA"/>
<path d="M96.8819 51.4314H63.1172V57.8628H56.6855V64.2942H50.2549V77.1569H43.8232V101.275H50.2549V107.706H56.6855V114.137H63.1172V120.569H96.8819V114.137H103.313V107.706H109.745V101.275H116.176V77.1569H109.745V64.2942H103.313V57.8628H96.8819V51.4314Z" fill="#F27CCA"/>
<path d="M116.177 51.4314H122.608V70.7255H116.177V51.4314Z" fill="#F27CCA"/>
<path d="M37.3926 45H43.824V51.4314H37.3926V45Z" fill="black"/>
<path d="M122.608 45H116.177V51.4314H122.608V45Z" fill="black"/>
<path d="M103.314 51.4314H96.8828V57.8628H103.314V51.4314Z" fill="black"/>
<path d="M56.6868 120.569H63.1181V127H96.8828V120.569H63.1181L63.1182 114.137H56.6868L56.6868 120.569Z" fill="black"/>
<path d="M109.745 107.706V114.137H103.314V107.706H109.745Z" fill="black"/>
<path d="M116.177 107.706V101.275H109.745L109.745 107.706L116.177 107.706Z" fill="black"/>
<path d="M50.2549 101.275V107.706H43.8235V101.275H50.2549Z" fill="black"/>
<path d="M50.2549 57.8627V64.2941H56.6863V57.8627L50.2549 57.8627Z" fill="black"/>
<path d="M103.314 57.8628L109.745 57.8628V64.2942H103.313L103.314 57.8628Z" fill="black"/>
<path d="M116.177 51.4314L109.745 51.4314V77.1569H116.176L116.177 51.4314Z" fill="black"/>
<path d="M30.9609 51.4314L37.3926 51.4314L37.3923 70.7255H30.9609V51.4314Z" fill="black"/>
<path d="M129.04 51.4314L122.608 51.4314L122.608 70.7255H129.04V51.4314Z" fill="black"/>
<path d="M43.824 51.4314L50.2546 51.4314V77.1569H43.824L43.8235 101.275L37.3926 101.274L37.3923 70.7255L43.8232 70.7255L43.824 51.4314Z" fill="black"/>
<path d="M96.8828 51.4314V45H63.1181V51.4314L96.8828 51.4314Z" fill="black"/>
<path d="M122.608 70.7255L116.177 70.7255V101.275L122.608 101.274L122.608 70.7255Z" fill="black"/>
<path d="M50.2551 114.137L56.6868 114.137L56.6865 107.706L50.2549 107.706L50.2551 114.137Z" fill="black"/>
<path d="M103.314 114.137L103.313 120.569L96.8828 120.569L96.8821 114.137L103.314 114.137Z" fill="black"/>
<path d="M56.6865 51.4314L56.6863 57.8627L63.1179 57.8628L63.1181 51.4314L56.6865 51.4314Z" fill="black"/>
<rect x="103.313" y="79.5687" width="6.43137" height="12.8627" transform="rotate(90 103.313 79.5687)" fill="black"/>
<rect x="69.5498" y="79.5687" width="6.43137" height="12.8627" transform="rotate(90 69.5498 79.5687)" fill="black"/>
<path d="M76.7852 94.8431H83.2165V101.274H96.0788V107.706H83.2148V101.275H76.7852V94.8431Z" fill="black"/>
<path d="M76.7839 101.274V107.706H63.9219V101.274H76.7839Z" fill="black"/>
</svg>
