<svg width="500" height="500" viewBox="0 0 500 500" fill="none" xmlns="http://www.w3.org/2000/svg">
<path d="M340.845 304.85L346 310.294L310.558 346L305.116 340.556C305.116 340.556 310.021 335.901 249.518 274.337C189.015 335.901 193.92 340.556 193.92 340.556L188.478 346L153.036 310.294L158.191 304.85C158.191 304.85 163.096 309.757 224.386 249.231C163.096 189.208 158.442 193.863 158.442 193.863L153 188.706L188.693 153L194.135 158.157C194.135 158.157 189.481 162.813 249.482 224.126C309.484 162.813 304.83 158.157 304.83 158.157L310.271 153L345.964 188.706L340.523 193.863C340.523 193.863 335.868 189.208 274.578 249.231C335.868 309.757 340.773 304.85 340.773 304.85H340.845Z" fill="#222220"/>
</svg>
