<svg width="500" height="500" viewBox="0 0 500 500" fill="none" xmlns="http://www.w3.org/2000/svg">
<path d="M148 314.146C148 293.775 164.301 278.077 184.508 278.077C204.714 278.077 221.267 293.81 221.267 314.146C221.267 331.663 204.965 351 184.508 351C164.051 351 148 334.268 148 314.146ZM198.731 314.146C198.731 306.404 192.533 300.232 184.508 300.232C176.984 300.232 170.285 306.404 170.285 314.146C170.285 322.387 177.02 328.595 184.508 328.595C192.533 328.595 198.731 322.423 198.731 314.146ZM186.299 256.172C186.299 256.172 193.536 258.74 210.626 209.007C230.295 159.024 222.807 156.17 222.807 156.17L225.387 148.714L260.318 161.343L257.488 168.835C257.488 168.835 250.251 166.266 231.871 216.785C224.097 238.191 221.016 250.82 219.977 258.027C228.002 252.604 242.763 240.759 269.418 214.216C325.309 158.56 320.15 152.888 320.15 152.888L325.345 148L352 174.044L346.554 179.717C346.554 179.717 341.395 174.044 285.469 229.985C259.351 256.279 247.17 270.692 241.473 278.933C248.961 277.649 261.393 274.295 282.352 266.304C333.334 249.286 330.755 241.58 330.755 241.58L338.242 239.011L350.925 273.546L343.437 276.364C343.437 276.364 340.607 269.158 290.126 287.46C240.685 305.512 243.264 312.719 243.264 312.719L236.027 315.288C232.66 301.124 227.751 289.779 218.436 280.503C209.372 271.477 197.979 266.339 183.755 263.236L186.335 256.279L186.299 256.172Z" fill="#222220"/>
</svg>
