<svg width="500" height="500" viewBox="0 0 500 500" fill="none" xmlns="http://www.w3.org/2000/svg">
<path d="M236.938 338.921C226.328 349.545 212.35 355 198.623 355C184.895 355 170.666 349.545 160.057 338.921C149.197 328.046 144 314.049 144 300.303C144 286.557 149.161 272.56 159.806 261.936C163.964 257.773 168.874 254.435 173.534 251.815C178.444 249.231 183.103 247.4 252.493 206.449C329.66 161.084 320.341 149.168 320.341 149.168L325.502 144H325.753L355 173.538L349.803 178.706C349.803 178.706 337.904 169.375 292.6 246.647C251.704 316.131 247.296 325.462 247.296 325.462C245.217 328.836 240.808 335.045 236.938 338.957V338.921ZM198.874 324.673C212.35 324.673 223.461 313.798 223.461 300.052C223.461 286.306 212.314 275.431 198.874 275.431C185.433 275.431 174.286 286.593 174.286 300.052C174.286 313.511 185.146 324.673 198.874 324.673ZM245.468 272.308L273.962 225.112C252.206 238.069 237.188 247.4 226.579 253.645C230.45 255.978 234.07 258.562 237.188 261.936C240.558 265.059 243.138 268.683 245.468 272.308Z" fill="#222220"/>
</svg>
