<svg width="500" height="500" viewBox="0 0 500 500" fill="none" xmlns="http://www.w3.org/2000/svg">
<path d="M381 223.898V275.067H371.932C371.932 275.067 371.932 268.34 349.424 266.801C347.094 278.43 342.184 289.022 335.947 298.075C352.793 312.567 357.703 307.915 357.703 307.915L364.19 314.392L327.955 350.568L321.468 344.091C321.468 344.091 326.378 339.189 311.109 322.121C298.171 330.637 282.902 336.327 267.347 338.939C268.888 361.947 275.627 361.947 275.627 361.947V371H224.373V361.947C224.373 361.947 231.362 361.947 232.904 338.939C217.098 336.613 201.829 330.923 188.891 322.121C173.873 339.44 178.532 344.091 178.532 344.091L172.045 350.568L135.81 314.392L142.297 307.915C142.297 307.915 147.207 312.567 164.053 298.361C157.565 289.058 152.906 278.466 150.576 266.837C128.068 268.375 128.068 275.102 128.068 275.102H119V223.933H128.068C128.068 223.933 128.068 230.911 150.576 232.45C152.906 220.57 157.565 209.978 164.053 200.675C146.956 186.183 142.297 190.834 142.297 190.834L135.81 184.358L172.045 148.181L178.532 154.658C178.532 154.658 173.622 159.56 188.64 176.879C201.829 168.077 217.133 162.423 232.904 160.097C231.362 137.089 224.373 137.089 224.373 137.089V128H275.627V137.053C275.627 137.053 268.888 137.053 267.347 160.061C282.866 162.638 298.171 168.327 311.36 177.13C326.629 159.56 321.468 154.658 321.468 154.658L327.955 148.181L364.19 184.358L357.703 190.834C357.703 190.834 353.044 186.183 335.947 200.675C342.435 209.978 347.094 220.57 349.424 232.45C371.932 230.911 371.932 223.933 371.932 223.933H381V223.898ZM301.253 249.482C301.253 212.268 276.415 188.723 249.713 188.723C223.011 188.723 198.711 212.232 198.711 249.482C198.711 286.732 223.298 309.955 249.713 309.955C276.128 309.955 301.253 286.696 301.253 249.482Z" fill="#222220"/>
</svg>
