<svg width="500" height="500" viewBox="0 0 500 500" fill="none" xmlns="http://www.w3.org/2000/svg">
<path d="M343 256.252C343 256.252 339.378 256.754 317.863 279.343C317.863 279.343 303.34 295.683 295.057 306.062C286.773 316.441 273.828 334.613 273.828 334.613C255.684 361.331 255.433 366 255.433 366H244.567C244.567 366 244.065 361.331 226.172 334.613C226.172 334.613 212.976 316.441 204.943 306.062C196.66 295.683 182.137 279.595 182.137 279.595C160.622 256.754 157 256.252 157 256.252V242.748C157 242.748 160.622 242.246 181.85 219.657C181.85 219.657 196.624 203.317 204.907 192.938C212.94 182.559 225.885 164.387 225.885 164.387C244.03 137.669 244.532 133 244.532 133H255.397C255.397 133 255.899 137.669 273.792 164.387C273.792 164.387 286.737 182.559 295.021 192.938C303.304 203.317 317.827 219.657 317.827 219.657C339.342 242.21 342.964 242.748 342.964 242.748V256.252H343ZM285.231 249.5C281.61 243.539 276.159 236.284 268.378 226.66C260.596 216.82 254.644 210.068 249.982 205.4C245.32 210.068 239.368 216.82 231.586 226.66C224.092 236.248 218.641 243.539 214.733 249.5C218.606 255.21 224.056 262.716 231.586 272.34C239.368 282.216 245.32 288.932 249.982 293.6C254.644 288.932 260.596 282.18 268.378 272.34C276.159 262.752 281.574 255.21 285.231 249.5Z" fill="#222220"/>
</svg>
