<svg width="500" height="500" viewBox="0 0 500 500" fill="none" xmlns="http://www.w3.org/2000/svg">
<path d="M430.964 159.024V168.077C430.964 168.077 423.186 168.077 422.433 226.474C421.931 266.801 428.921 266.801 428.921 266.801L422.433 273.278C422.433 273.027 421.143 267.338 348.916 266.55C346.586 278.43 341.926 289.022 335.438 298.075C352.285 312.567 357.196 307.915 357.196 307.915L363.684 314.392L327.444 350.568L320.957 344.091C320.957 344.091 325.867 339.189 310.598 322.121C297.658 330.637 282.388 336.327 266.831 338.939C268.372 361.947 275.111 361.947 275.111 361.947V371H223.853V361.947C223.853 361.947 230.843 361.947 232.384 338.939C216.577 336.613 201.307 330.923 188.367 322.121C173.348 339.44 178.008 344.091 178.008 344.091L171.52 350.568L135.281 314.392L141.769 307.915C141.769 307.915 146.679 312.567 163.526 298.361C157.038 289.058 152.379 278.466 150.049 266.3C135.03 266.55 117.932 267.087 111.731 267.839C110.942 272.741 110.44 280.255 110.44 285.408C110.44 330.888 119.258 330.888 119.258 330.888V339.941H68V330.888C68 330.888 75.7783 330.888 76.5311 272.455C77.0329 232.128 70.0432 232.128 70.0432 232.128L76.5311 225.651C76.5311 225.901 77.8216 231.591 150.085 232.378C152.415 220.498 157.074 209.906 163.562 200.603C146.464 186.111 141.804 190.763 141.804 190.763L135.317 184.286L171.556 148.11L178.043 154.587C178.043 154.587 173.133 159.489 188.152 176.808C201.343 168.005 216.648 162.351 232.42 160.025C230.879 137.017 223.889 137.017 223.889 137.017V128H275.147V137.053C275.147 137.053 268.408 137.053 266.867 160.061C282.388 162.638 297.693 168.327 310.884 177.13C326.154 159.56 320.992 154.658 320.992 154.658L327.48 148.181L363.719 184.358L357.231 190.834C357.231 190.834 352.572 186.183 335.474 200.675C341.962 209.978 346.621 220.82 348.951 232.736C363.97 232.485 381.068 231.949 387.269 231.197C388.058 226.295 388.56 218.781 388.56 213.628C388.56 168.148 379.742 168.148 379.742 168.148V159.095H431L430.964 159.024ZM300.74 249.482C300.74 212.268 275.9 188.723 249.231 188.723C222.563 188.723 198.224 212.232 198.224 249.482C198.224 286.732 222.814 309.955 249.231 309.955C275.649 309.955 300.74 286.696 300.74 249.482Z" fill="#222220"/>
</svg>
