<svg width="500" height="500" viewBox="0 0 500 500" fill="none" xmlns="http://www.w3.org/2000/svg">
<path d="M351.471 207.02C340.314 215.842 327.364 231.622 308.459 261.173C284.1 299.511 279.688 321.28 279.688 333.438C279.688 338.351 280.728 341.722 282.271 344.053C285.392 346.636 287.185 347.927 288.764 348.716C290.306 349.218 291.347 349.218 291.347 349.218V357H206.864V349.218C206.864 349.218 207.904 349.218 209.447 348.716C210.99 347.927 212.819 346.636 215.94 344.053C217.483 341.722 218.523 338.351 218.523 333.438C218.523 321.28 214.111 299.511 189.752 261.173C171.887 233.451 159.439 217.922 148.82 208.598C139.242 201.856 133 190.738 133 178.294C133 157.816 149.323 142.036 169.555 142.036C189.788 142.036 206.362 157.852 206.362 178.294C206.362 186.578 202.739 195.149 196.784 202.143C195.492 203.972 193.411 207.594 193.411 212.256C193.411 224.701 200.156 233.774 225.267 271.574C228.101 275.734 230.72 279.607 233.554 283.229V266.374C233.554 221.294 229.142 210.427 227.061 207.558C226.81 207.307 226.559 207.056 226.021 206.769C217.985 199.776 212.819 189.662 212.819 178.258C212.819 157.78 229.142 142 249.339 142C269.536 142 286.145 157.816 286.145 178.258C286.145 188.622 280.692 199.489 271.903 206.769C271.401 207.02 271.114 207.271 270.863 207.558C268.531 210.391 264.37 221.545 264.37 266.374V283.48C267.204 279.858 270.074 275.698 272.908 271.574C298.055 233.738 304.799 224.665 304.799 212.256C304.799 208.383 302.97 204.761 301.965 202.932C296.01 196.189 292.638 187.654 292.638 178.329C292.638 157.851 308.961 142.072 329.194 142.072C349.426 142.072 366 157.887 366 178.329C366 188.694 360.296 199.847 351.507 207.092L351.471 207.02Z" fill="#222220"/>
</svg>
