<svg width="500" height="500" viewBox="0 0 500 500" fill="none" xmlns="http://www.w3.org/2000/svg">
<path d="M373.893 228.481L371.062 235.475C371.062 235.475 360.957 231.063 328.098 305.958L312.296 342.222L307.387 357H299.897C294.702 347.136 284.633 334.474 278.935 327.731L249.946 289.387L220.957 327.731C215.26 334.474 205.155 347.172 199.995 357H192.506L187.597 342.222L171.794 305.958C138.936 231.063 128.831 235.475 128.831 235.475L126 228.481L183.189 200.252L186.307 207.246C186.307 207.246 176.99 211.407 205.728 278.518L229.557 247.958C229.306 214.779 227.73 196.916 225.938 187.088C200.819 188.917 200.819 193.831 200.819 193.831H194.334V142H200.819C200.819 142 200.819 149.497 250.269 149.497C299.718 149.497 299.181 142 299.181 142H305.667V193.831H299.181C299.181 193.831 299.181 188.917 274.348 187.088C272.521 196.952 270.98 215.066 270.73 248.245L294.272 278.554C323.01 211.443 313.693 207.282 313.693 207.282L316.811 200.287L374 228.516L373.893 228.481Z" fill="#222220"/>
</svg>
