<svg width="500" height="500" viewBox="0 0 500 500" fill="none" xmlns="http://www.w3.org/2000/svg">
<path d="M331.835 227.911C331.835 290.243 358.928 317.667 358.928 317.667L350.922 325.687C350.922 325.687 302.382 313.801 292.839 250.682C287.156 248.891 278.899 247.316 267.032 246.528C268.319 282.975 273.752 299.802 277.112 306.783C281.758 312.977 284.618 320.495 284.618 329.016C284.618 349.173 268.355 366 248.195 366C228.036 366 211.523 346.595 211.523 329.016C211.523 320.746 214.096 313.228 218.743 307.034C222.103 300.053 227.536 283.512 228.822 246.528C219.029 247.316 211.523 248.354 206.09 249.643C196.796 313.514 148.006 325.687 148.006 325.687L140 317.667C140 317.667 167.094 290.243 167.094 227.911C167.094 165.58 140 141.02 140 141.02L148.006 133C148.006 133 194.723 150.328 205.339 204.64C211.022 206.179 218.492 207.218 228.822 208.005C226.749 144.134 215.919 144.135 215.919 144.135V136.652H280.221V144.135C280.221 144.135 269.105 144.134 267.068 208.005C279.471 207.218 287.978 205.678 293.661 203.852C304.777 150.328 350.994 133 350.994 133L359 141.02C359 141.02 331.906 163.253 331.906 227.911H331.835ZM262.385 329.016C262.385 321.247 255.666 315.054 248.195 315.054C240.189 315.054 234.005 321.247 234.005 329.016C234.005 337.287 240.189 343.48 248.195 343.48C255.666 343.48 262.385 337.287 262.385 329.016Z" fill="#222220"/>
</svg>
