<svg width="500" height="500" viewBox="0 0 500 500" fill="none" xmlns="http://www.w3.org/2000/svg">
<path d="M143 188.567C143 165.331 164.26 155 185.807 155C214.609 155 245.744 170.229 245.457 209.73C245.206 246.658 210.443 269.108 210.443 291.343C210.443 302.175 218.99 310.182 231.703 310.182C271.386 310.182 307.441 248.982 307.441 209.73C307.441 192.178 300.187 181.847 289.557 181.847C278.927 181.847 275.551 191.391 275.551 195.288C275.551 199.185 276.593 206.12 285.93 211.804L278.137 222.921C262.587 214.914 254.543 200.185 254.543 188.567C254.543 165.331 275.803 155 297.35 155C326.152 155 357 175.412 357 209.73C357 277.902 304.066 344 234.288 344C184.227 344 159.843 314.043 159.843 291.307C159.843 259.527 195.647 246.622 195.898 209.694C195.898 192.142 188.644 181.811 178.014 181.811C167.384 181.811 164.009 191.356 164.009 195.252C164.009 199.149 165.05 206.084 174.387 211.768L166.594 222.886C151.044 214.878 143 200.15 143 188.532V188.567Z" fill="#222220"/>
</svg>
