<svg width="500" height="500" viewBox="0 0 500 500" fill="none" xmlns="http://www.w3.org/2000/svg">
<path d="M368.964 188.708V226.292H362.486C362.486 226.292 362.485 221.877 348.525 219.795C339.72 229.128 330.163 242.087 316.453 263.626C302.243 286.205 295.513 297.585 292.65 305.626C327.299 303.831 327.299 299.918 327.299 299.918H334.78V344H327.299C327.299 344 327.299 335.959 251.271 335.959C175.242 335.959 172.665 344 172.665 344H165.184V299.918H172.665C172.665 299.918 172.665 303.795 207.315 305.626C204.2 297.585 197.757 286.169 183.511 263.626C169.802 242.087 160.244 229.128 151.439 219.795C137.479 221.877 137.479 226.292 137.479 226.292H131V188.708H137.479C137.479 188.708 137.479 196.246 168.764 196.246C200.048 196.246 199.547 188.708 199.547 188.708H206.026V226.292H199.547C199.547 226.292 199.547 222.667 188.952 220.333C194.106 231.497 203.699 246 218.948 268.831L233.695 290.62C234.197 280.246 234.733 266.749 234.733 249.374C234.733 215.667 233.445 196.749 232.156 186.374C218.984 188.456 218.984 192.585 218.984 192.585H212.505V155H218.984C218.984 155 218.984 162.503 250.268 162.503C281.553 162.503 281.052 155 281.052 155H287.531V192.585H281.052C281.052 192.585 281.052 188.169 267.593 186.087C265.768 196.713 264.229 215.379 264.229 249.338C264.229 267.503 264.479 281.215 265.267 292.128C270.17 285.128 275.611 277.087 281.052 268.795C296.301 245.964 305.858 231.462 311.048 220.297C300.453 222.631 300.453 226.256 300.453 226.256H293.974V188.672H300.453C300.453 188.672 300.453 196.21 331.236 196.21C362.02 196.21 362.521 188.672 362.521 188.672H369L368.964 188.708Z" fill="#222220"/>
</svg>
