<svg width="500" height="500" viewBox="0 0 500 500" fill="none" xmlns="http://www.w3.org/2000/svg">
<path d="M335.565 295.108C341.772 302.302 345.397 311.441 345.397 321.892C345.397 349.989 318.211 367 292.385 367C276.028 367 259.672 360.485 249.523 349.038C239.373 360.485 223.017 367 206.977 367C180.472 367 154.283 349.989 154.283 321.892C154.283 311.441 157.862 302.302 163.753 295.425C138.561 293.796 115 276.784 115 250C115 223.216 138.878 206.521 164.115 204.892C157.908 198.015 154.283 188.876 154.283 178.425C154.283 150.012 180.789 133 207.295 133C223.017 133 239.373 139.56 249.523 150.962C259.672 139.515 276.028 133 292.385 133C318.257 133 345.397 150.012 345.397 178.425C345.397 188.876 341.455 198.015 335.565 205.209C360.122 206.837 384 223.487 384 250C384 276.513 360.122 293.479 335.565 295.108ZM167.649 280.087C184.323 280.087 199.728 268.64 199.728 250C199.728 231.36 184.323 219.596 167.649 219.596C150.975 219.596 135.57 231.676 135.57 250C135.57 268.324 150.975 280.087 167.649 280.087ZM167.966 265.383C159.448 265.383 152.561 258.823 152.561 250C152.561 241.811 159.448 234.979 167.966 234.979C176.484 234.979 183.371 241.856 183.371 250C183.371 258.823 176.484 265.383 167.966 265.383ZM175.17 178.47C175.17 197.11 190.576 208.557 207.249 208.557C223.923 208.557 239.328 197.11 239.328 178.47C239.328 159.829 223.606 148.066 207.249 148.066C190.893 148.066 175.17 159.829 175.17 178.47ZM239.328 321.938C239.328 303.297 223.606 291.534 207.249 291.534C190.893 291.534 175.17 303.297 175.17 321.938C175.17 340.578 190.576 351.662 207.249 351.662C223.923 351.662 239.328 340.216 239.328 321.938ZM222.292 321.938C222.292 330.76 215.767 337.32 207.249 337.32C198.731 337.32 191.844 330.805 191.844 321.938C191.844 313.07 198.731 306.6 207.249 306.6C215.767 306.6 222.292 313.477 222.292 321.938ZM192.161 178.47C192.161 170.281 198.686 163.449 207.566 163.449C215.767 163.449 222.609 170.326 222.609 178.47C222.609 186.614 215.722 193.853 207.566 193.853C198.731 193.853 192.161 186.976 192.161 178.47ZM249.432 219.641C232.758 219.641 217.353 231.722 217.353 250.045C217.353 268.369 232.758 280.132 249.432 280.132C266.106 280.132 281.511 268.686 281.511 250.045C281.511 231.405 265.789 219.641 249.432 219.641ZM249.749 235.024C258.267 235.024 264.792 241.901 264.792 250.045C264.792 258.868 258.267 265.428 249.749 265.428C241.231 265.428 234.027 258.868 234.027 250.045C234.027 241.856 241.231 235.024 249.749 235.024ZM259.898 178.47C259.898 197.11 275.621 208.557 292.294 208.557C308.968 208.557 324.373 197.11 324.373 178.47C324.373 159.829 308.651 148.066 292.294 148.066C275.938 148.066 259.898 159.829 259.898 178.47ZM324.373 321.938C324.373 303.297 308.651 291.534 292.294 291.534C275.938 291.534 259.898 303.297 259.898 321.938C259.898 340.578 275.621 351.662 292.294 351.662C308.968 351.662 324.373 340.216 324.373 321.938ZM277.252 178.47C277.252 170.281 283.776 163.449 292.294 163.449C300.813 163.449 307.7 170.326 307.7 178.47C307.7 186.614 300.495 193.853 292.294 193.853C284.093 193.853 277.252 186.976 277.252 178.47ZM307.7 321.938C307.7 330.76 300.495 337.32 292.294 337.32C284.093 337.32 277.252 330.805 277.252 321.938C277.252 313.07 283.776 306.6 292.294 306.6C300.813 306.6 307.7 313.477 307.7 321.938ZM363.022 250.045C363.022 231.767 347.979 219.641 330.943 219.641C313.907 219.641 298.864 231.722 298.864 250.045C298.864 268.369 314.587 280.132 330.943 280.132C347.3 280.132 363.022 268.686 363.022 250.045ZM346.665 250.045C346.665 258.868 340.141 265.428 331.26 265.428C322.38 265.428 315.855 258.868 315.855 250.045C315.855 241.856 322.742 235.024 331.26 235.024C339.778 235.024 346.665 241.901 346.665 250.045Z" fill="#222220"/>
</svg>
