<svg width="500" height="500" viewBox="0 0 500 500" fill="none" xmlns="http://www.w3.org/2000/svg">
<path d="M370 250C370 311.277 309.248 348 249.749 348C190.251 348 130 311.277 130 250C130 188.723 189.749 152 249.749 152C309.75 152 370 188.974 370 250ZM316.48 250C316.48 209.912 284.153 184.321 249.749 184.321C215.346 184.321 183.556 209.912 183.556 250C183.556 290.088 215.633 315.429 249.749 315.429C283.866 315.429 316.48 290.088 316.48 250ZM250.286 226.198C237.112 226.198 226.48 236.792 226.48 249.714C226.48 262.635 237.076 273.516 250.286 273.516C263.496 273.516 273.807 262.921 273.807 249.714C273.807 236.506 263.21 226.198 250.286 226.198Z" fill="#222220"/>
</svg>
