<svg width="500" height="500" viewBox="0 0 500 500" fill="none" xmlns="http://www.w3.org/2000/svg">
<path d="M364 318.533C364 338.681 347.663 355 327.161 355C311.327 355 298.113 345.158 292.907 331.201C279.945 339.218 264.901 343.333 249.856 343.333C234.812 343.333 219.767 339.182 207.057 331.452C201.887 345.158 188.386 354.964 172.839 354.964C152.337 354.964 136 338.681 136 318.497C136 298.313 152.337 281.779 172.839 281.779H173.342C172.552 277.914 172.3 273.763 172.3 269.361C172.3 236.007 192.802 211.958 219.229 201.615C215.351 195.925 213.269 188.947 213.269 181.718C213.269 161.283 229.606 145 250.108 145C270.61 145 286.695 161.283 286.695 181.718C286.695 189.197 284.613 195.925 280.735 201.615C306.91 212.208 327.664 236.007 327.664 269.361C327.664 273.763 327.412 277.878 326.622 281.779H327.125C347.627 281.779 363.964 298.062 363.964 318.497L364 318.533ZM187.129 318.032C187.129 315.705 186.627 313.63 185.586 311.554C184.796 310.767 184.293 310.015 183.754 309.228C181.169 306.114 177.255 304.074 172.875 304.074C164.832 304.074 158.62 310.266 158.62 318.032C158.62 326.299 164.832 332.525 172.875 332.525C180.379 332.525 187.129 326.334 187.129 318.032ZM287.234 269.683C287.234 242.019 269.353 224.197 250.144 224.197C230.934 224.197 213.053 242.019 213.053 269.683C213.053 297.347 230.934 314.918 250.144 314.918C269.353 314.918 287.234 297.347 287.234 269.683ZM235.889 181.288C235.889 189.555 242.101 195.746 250.144 195.746C257.648 195.746 264.398 189.555 264.398 181.288C264.398 173.522 257.648 167.331 250.144 167.331C242.101 167.331 235.889 173.522 235.889 181.288ZM341.451 318.032C341.451 310.266 335.24 304.074 327.197 304.074C319.693 304.074 312.942 310.266 312.942 318.032C312.942 326.299 319.693 332.525 327.197 332.525C335.24 332.525 341.451 326.334 341.451 318.032Z" fill="#222220"/>
</svg>
