<svg width="500" height="500" viewBox="0 0 500 500" fill="none" xmlns="http://www.w3.org/2000/svg">
<path d="M249.749 211.804C208.902 211.804 170.633 242.332 170.346 290.238H130C130.251 217.251 190 173 249.749 173C309.499 173 369.749 217.251 370 290.238H329.654C329.403 242.368 290.597 211.804 249.749 211.804ZM213.27 289.987C213.27 269.528 229.558 253.762 249.749 253.762C269.94 253.762 286.48 269.563 286.48 289.987C286.48 307.58 270.191 327 249.749 327C229.308 327 213.27 310.16 213.27 289.987ZM263.962 289.987C263.962 282.212 257.768 276.013 249.749 276.013C242.267 276.013 235.537 282.212 235.537 289.987C235.537 298.264 242.267 304.463 249.749 304.463C257.768 304.463 263.962 298.264 263.962 289.987Z" fill="#222220"/>
</svg>
