<svg width="500" height="500" viewBox="0 0 500 500" fill="none" xmlns="http://www.w3.org/2000/svg">
<path d="M145 298.615C145 272.089 166.13 250.952 192.647 250.952C219.164 250.952 239.969 272.089 239.969 298.615C239.969 325.141 218.839 345.954 192.647 345.954C166.455 345.954 145 324.816 145 298.615ZM211.084 297.965C211.084 287.884 202.353 279.848 192.647 279.848C182.245 279.848 174.21 287.884 174.21 297.965C174.21 308.696 182.245 316.733 192.647 316.733C202.353 316.733 211.084 308.696 211.084 297.965ZM202.353 201.663C202.353 175.137 223.483 154 250 154C276.517 154 297.322 175.137 297.322 201.663C297.322 228.189 276.192 249.001 250 249.001C223.808 249.001 202.353 227.864 202.353 201.663ZM268.437 201.013C268.437 190.932 259.706 182.895 250 182.895C239.598 182.895 231.563 190.932 231.563 201.013C231.563 211.744 239.598 219.781 250 219.781C259.706 219.781 268.437 211.744 268.437 201.013ZM260.031 298.662C260.031 272.136 281.161 250.999 307.678 250.999C334.195 250.999 355 272.136 355 298.662C355 325.188 333.87 346 307.678 346C281.486 346 260.031 324.863 260.031 298.662ZM326.115 298.012C326.115 287.931 317.384 279.894 307.678 279.894C297.276 279.894 289.241 287.931 289.241 298.012C289.241 308.743 297.276 316.78 307.678 316.78C317.384 316.78 326.115 308.743 326.115 298.012Z" fill="#222220"/>
</svg>
