<svg width="500" height="500" viewBox="0 0 500 500" fill="none" xmlns="http://www.w3.org/2000/svg">
<path d="M335 249.874C335 297.808 290.291 324 249.732 324C209.172 324 165 297.808 165 249.874C165 201.94 208.421 176 249.732 176C291.043 176 335 202.191 335 249.874ZM296.765 250.125C296.765 220.848 274.268 202.191 249.982 202.191C225.696 202.191 203.235 220.848 203.235 250.125C203.235 279.403 225.983 297.808 249.982 297.808C273.982 297.808 296.765 279.403 296.765 250.125ZM231.133 223.683C222.084 223.683 214.609 231.217 214.609 240.259C214.609 249.3 222.12 256.835 231.133 256.835C240.146 256.835 247.657 249.336 247.657 240.259C247.657 231.181 240.182 223.683 231.133 223.683ZM249.732 255.83C240.683 255.83 233.207 263.329 233.207 272.406C233.207 281.484 240.683 288.982 249.732 288.982C258.781 288.982 266.256 281.448 266.256 272.406C266.256 263.365 258.781 255.83 249.732 255.83ZM268.33 223.683C259.281 223.683 251.806 231.217 251.806 240.259C251.806 249.3 259.281 256.835 268.33 256.835C277.379 256.835 284.855 249.336 284.855 240.259C284.855 231.181 277.379 223.683 268.33 223.683Z" fill="#222220"/>
</svg>
