<svg width="500" height="500" viewBox="0 0 500 500" fill="none" xmlns="http://www.w3.org/2000/svg">
<path d="M403.852 250C403.852 345.549 413.964 345.549 413.964 345.549V353H85V345.549C85 345.549 95.1121 345.549 95.1121 250C95.1121 154.451 85 154.451 85 154.451V147H140.437C141.979 153.168 148.72 161.404 160.374 173.026C172.028 184.649 180.311 191.316 186.551 195.416C192.754 191.28 201.324 184.613 212.727 173.026C224.13 161.439 233.704 153.204 232.665 147H269.204C268.164 153.168 274.905 161.404 286.559 173.026C297.962 184.364 306.497 191.316 312.736 195.416C318.94 191.28 327.51 184.328 338.877 173.026C350.531 161.439 357.272 153.204 358.814 147H414V167.358C414 154.487 403.888 154.487 403.888 250.036L403.852 250ZM136.528 200.051C134.7 211.888 133.158 218.341 133.158 248.966C137.819 250.784 158.294 255.419 250.737 255.419C343.18 255.419 361.324 251.034 365.735 248.966C365.735 218.305 364.444 211.888 362.615 200.051C359.244 203.153 355.372 206.504 350.961 210.854C339.307 222.441 332.315 230.926 330.773 237.379H294.52C292.978 230.926 285.986 222.441 274.332 210.854C267.59 204.151 254.395 187.43 249.482 183.544C244.82 187.394 231.625 204.151 224.883 210.854C213.229 222.441 206.237 230.926 204.695 237.379H168.155C166.614 230.926 159.621 222.441 147.967 210.854C143.808 206.718 139.935 203.117 136.564 200.051H136.528ZM362.4 307.436L363.942 296.099C357.451 293.781 335.721 290.68 250.737 290.68C165.753 290.68 142.481 294.281 134.951 296.598L136.492 307.401C136.743 308.185 137.532 308.934 138.321 309.468C148.433 312.285 175.363 316.421 249.446 316.421C323.529 316.421 350.71 312.285 360.571 309.468C361.611 308.969 362.4 308.185 362.4 307.401V307.436Z" fill="#ffffff"/>
</svg>
