<svg width="500" height="500" viewBox="0 0 500 500" fill="none" xmlns="http://www.w3.org/2000/svg">
<path d="M133 340V332.517C133 332.517 145.697 330.977 182.748 254.674C222.92 171.89 209.936 166.734 208.143 166.484H207.891V159H292.109V166.484C290.279 166.734 277.331 171.926 317.252 254.674C354.303 330.977 367 332.517 367 332.517V340H133ZM211.514 298.107C224.211 298.895 236.37 299.145 248.063 299.145C261.011 299.145 273.457 298.895 286.406 297.856C287.697 297.606 288.486 296.317 288.235 295.027C286.944 289.585 279.698 271.216 271.126 252.597C262.59 233.727 252.977 214.571 250.646 210.704C249.857 209.415 248.063 209.415 247.023 210.704C244.692 214.571 234.577 233.477 226.04 252.597C217.755 270.966 211.012 289.585 209.47 295.278C209.219 296.567 210.259 297.856 211.55 298.107H211.514Z" fill="#ffffff"/>
</svg>
