<svg width="500" height="500" viewBox="0 0 500 500" fill="none" xmlns="http://www.w3.org/2000/svg">
<path d="M361 154.451C361 154.451 350.173 154.451 339.847 246.399C328.734 345.05 340.347 345.549 340.347 345.549V353H159.653V345.549C159.653 345.549 171.266 345.05 160.153 246.399C149.827 154.451 139 154.451 139 154.451V147H360.964V154.451H361ZM210.249 310.253C215.93 310.752 222.647 311.287 230.651 311.786C231.688 300.698 232.474 286.544 232.474 267.505V267.256C232.474 262.621 228.865 251.533 204.853 228.359C202.781 226.291 200.708 224.223 198.672 222.441C199.172 229.642 199.958 237.629 200.994 246.399C204.353 275.242 207.462 295.849 210.284 310.253H210.249ZM249.982 187.929C236.297 187.929 224.934 188.179 215.394 188.713C219.539 193.099 224.434 198.233 229.83 203.652C238.084 211.888 244.551 217.556 249.946 221.692C255.378 217.556 261.809 211.888 270.063 203.652C275.494 198.233 280.39 193.099 284.499 188.713C274.958 188.214 263.596 187.929 249.911 187.929H249.982ZM299.042 246.399C300.078 237.629 300.828 229.642 301.364 222.441C299.292 224.223 297.219 226.291 295.182 228.359C271.707 251.034 267.812 262.086 267.562 266.971C267.562 286.294 268.348 300.698 269.384 311.786C277.388 311.287 284.106 310.752 289.787 310.253C292.61 295.849 295.718 275.242 299.077 246.399H299.042Z" fill="#ffffff"/>
</svg>
