<svg width="500" height="500" viewBox="0 0 500 500" fill="none" xmlns="http://www.w3.org/2000/svg">
<path d="M366.964 159V166.481C366.964 166.481 356.095 167.769 324.742 229.045C345.727 226.969 345.727 224.141 345.727 224.141H352.22V274.572H345.727C345.727 274.572 345.727 270.42 306.088 268.38C279.649 328.117 290.268 332.233 291.846 332.52H292.097V340H207.867V332.52C209.41 332.269 220.064 328.117 193.877 268.38C154.488 270.456 154.488 274.572 154.488 274.572H147.995V224.141H154.488C154.488 224.141 154.488 226.718 175.223 229.045C143.87 167.769 133 166.481 133 166.481V159H367H366.964ZM280.402 231.407C285.568 218.737 289.478 207.892 290.519 203.74C290.77 202.451 289.729 201.163 288.438 200.912C275.739 200.125 263.578 199.875 251.883 199.875C238.933 199.875 226.485 200.125 213.535 201.163C212.244 201.414 211.454 202.702 211.706 203.991C212.746 207.856 216.62 218.737 222.073 231.407C230.36 231.658 239.687 231.658 250.054 231.658C261.461 231.658 271.578 231.658 280.367 231.407H280.402ZM264.08 267.092H238.431C243.597 277.686 247.758 285.954 249.3 288.281C250.09 289.569 251.883 289.569 252.924 288.281C254.466 285.954 258.879 277.686 264.08 267.092Z" fill="#ffffff"/>
</svg>
