<svg width="500" height="500" viewBox="0 0 500 500" fill="none" xmlns="http://www.w3.org/2000/svg">
<path d="M150.857 227.741C150.857 140.205 140 140.492 140 140.492V133H360V140.492C360 140.492 349.143 140.241 349.143 225.161C349.143 310.08 360 306.711 360 306.711V314.202H311.844C311.844 358.472 321.948 358.472 321.948 358.472V366H175.472V358.472C175.472 358.472 185.326 358.472 185.326 314.202H140.036V306.711C140.036 306.711 150.892 306.71 150.892 227.741H150.857ZM196.935 225.161C196.935 245.342 197.723 260.111 199.013 270.721C199.264 272.012 200.303 273.051 201.593 273.051H219.723C221.013 273.051 222.303 274.342 222.303 275.632V302.803C222.303 308.001 222.554 313.414 222.805 317.572C222.805 318.862 224.094 319.902 225.384 319.902H274.293C275.583 319.902 276.873 318.862 276.873 317.572C277.124 313.414 277.375 308.001 277.375 302.803L277.625 275.632C277.625 274.342 278.665 273.051 280.205 273.051H298.336C299.626 273.051 300.664 272.012 300.915 270.721C302.205 260.111 302.994 245.342 302.994 225.161C302.994 204.979 302.205 192.29 300.915 181.392C300.664 180.102 299.626 179.062 298.336 179.062H201.521C200.231 179.062 199.192 180.102 198.941 181.392C197.652 192.254 196.863 204.692 196.863 225.161H196.935Z" fill="#ffffff"/>
</svg>
