<svg width="500" height="500" viewBox="0 0 500 500" fill="none" xmlns="http://www.w3.org/2000/svg">
<path d="M386 137.128C386 137.128 371.318 137.128 371.318 249.5C371.318 361.873 386 361.873 386 361.873V372H113V361.873C113 361.873 127.682 362.212 127.682 249.5C127.682 136.789 113 137.128 113 137.128V127H386V137.128ZM309.004 249.161C309.004 226.386 307.599 206.809 306.193 192.466C305.854 190.382 304.449 189.316 302.704 189.316H196.296C194.551 189.316 192.807 190.382 192.807 192.466C191.062 206.809 189.996 226.434 189.996 249.161C189.996 271.887 191.062 291.852 192.807 306.195C192.807 307.94 194.551 309.345 196.296 309.345H302.704C304.449 309.345 305.854 307.94 306.193 306.195C307.599 291.852 309.004 271.887 309.004 249.161ZM249.839 217.324C232.007 217.324 217.616 231.668 217.616 249.161C217.616 266.654 231.959 281.385 249.839 281.385C267.719 281.385 281.675 267.042 281.675 249.161C281.675 231.28 267.332 217.324 249.839 217.324Z" fill="#ffffff"/>
</svg>
