<svg width="500" height="500" viewBox="0 0 500 500" fill="none" xmlns="http://www.w3.org/2000/svg">
<path d="M351 277.509C351 337.898 299.571 374 249.5 374C199.429 374 148 337.898 148 277.509C148 240.753 167.298 212.403 193.996 196.524C177.743 180.644 167.626 157.058 167.626 126H177.087C177.087 159.721 211.935 181.345 249.5 181.345C287.065 181.345 321.913 159.767 321.913 126H331.374C331.374 157.058 320.883 180.971 304.629 196.85C331.374 212.73 351 240.706 351 277.462V277.509ZM297.885 277.836C297.885 241.733 274.559 218.475 249.5 218.475C224.441 218.475 201.115 241.733 201.115 277.836C201.115 313.938 224.441 336.87 249.5 336.87C274.559 336.87 297.885 313.938 297.885 277.836Z" fill="#ffffff"/>
</svg>
