<svg width="500" height="500" viewBox="0 0 500 500" fill="none" xmlns="http://www.w3.org/2000/svg">
<path d="M355 305.892C355 343.058 323.391 365 292.787 365C276.211 365 260.389 358.818 249.231 347.704C238.073 358.818 222.286 365 206.213 365C174.855 365 144 343.058 144 305.892C144 268.726 174.855 247.034 206.213 247.034C214.752 247.034 223.076 248.856 230.574 251.93C230.574 251.93 235.49 251.93 237.319 226.128C213.209 227.665 213.209 233.347 213.209 233.347H206.715V195.931H213.209C213.209 195.931 213.209 201.613 238.073 203.149C238.073 195.145 238.073 188.176 237.822 182.244C213.209 183.78 213.209 189.462 213.209 189.462H206.715V152.046H213.209C213.209 152.046 213.209 157.478 236.028 159.015C233.696 141.969 230.574 141.969 230.574 141.969V135H268.426V141.969C268.426 141.969 265.304 141.969 262.972 159.015C285.791 157.478 285.791 152.046 285.791 152.046H292.285V189.462H285.791C285.791 189.462 285.791 183.78 261.178 182.244C260.927 188.176 260.927 195.145 260.927 203.149C285.791 201.863 285.791 195.931 285.791 195.931H292.285V233.347H285.791C285.791 233.347 285.791 227.665 261.681 226.128C263.223 249.107 267.385 251.68 268.175 251.93C275.96 248.821 284.248 247.034 292.787 247.034C323.355 247.034 355 269.476 355 305.892ZM233.193 306.142C233.193 286.273 220.241 273.086 206.249 273.086C192.256 273.086 179.304 286.237 179.304 306.142C179.304 326.047 192.256 338.912 206.249 338.912C220.241 338.912 233.193 326.262 233.193 306.142ZM319.768 306.142C319.768 286.273 306.815 273.086 292.823 273.086C278.83 273.086 265.878 286.237 265.878 306.142C265.878 326.047 278.83 338.912 292.823 338.912C306.815 338.912 319.768 326.262 319.768 306.142Z" fill="#ffffff"/>
</svg>
