<svg width="500" height="500" viewBox="0 0 500 500" fill="none" xmlns="http://www.w3.org/2000/svg">
<path d="M148.026 327C101.697 327 74 287.731 74 249.5C74 211.269 101.697 172 148.026 172C186.831 172 212.736 199.645 219.723 231.69C220.762 233.228 224.632 236.589 238.355 237.626C236.814 218.493 231.368 218.493 231.368 218.493V212.02H268.883V218.493C268.883 218.493 263.437 218.493 261.896 237.626C275.368 236.589 278.987 233.478 280.026 231.69C287.264 199.645 312.883 172 352.225 172C398.052 172 426 210.482 426 249.5C426 288.518 398.052 327 352.225 327C313.134 327 287.264 299.104 280.277 267.31C279.238 265.773 275.87 262.411 261.896 261.374C263.437 280.471 268.883 280.471 268.883 280.471V286.945H231.368V280.471C231.368 280.471 236.814 280.471 238.355 261.374C224.13 262.411 220.511 266.023 219.723 267.561C212.485 299.069 186.58 326.964 148.026 326.964V327ZM306.684 249.5C306.684 268.634 324.277 286.444 351.974 286.444C379.671 286.444 397.515 268.634 397.515 249.5C397.515 230.366 379.671 212.556 351.974 212.556C324.277 212.556 306.684 230.366 306.684 249.5ZM147.775 286.444C175.472 286.444 193.316 268.634 193.316 249.5C193.316 230.366 175.472 212.556 147.775 212.556C120.078 212.556 102.485 230.366 102.485 249.5C102.485 268.634 120.078 286.444 147.775 286.444Z" fill="#ffffff"/>
</svg>
