<svg width="500" height="500" viewBox="0 0 500 500" fill="none" xmlns="http://www.w3.org/2000/svg">
<path d="M357 290.747C357 351.074 300.491 384 249.158 384C197.826 384 142 351.074 142 290.747C142 238.919 182.836 207.285 227.59 199.789C230.214 197.493 233.486 191.647 234.78 174.359C210.264 176.332 210.264 183.147 210.264 183.147H202.104V135.874H210.264C210.264 135.874 210.264 142.725 234.133 144.662C231.832 123.787 225.649 123.787 225.649 123.787V115H273.351V123.787C273.351 123.787 267.132 123.787 264.867 144.662C288.736 142.725 288.736 135.874 288.736 135.874H296.896V183.147H288.736C288.736 183.147 288.736 176.296 264.22 174.359C265.514 192.293 269.109 197.816 271.41 199.789C315.517 207.931 357 239.242 357 290.747ZM308.651 291.069C308.651 254.234 280.217 230.742 249.518 230.742C218.819 230.742 190.385 254.198 190.385 291.069C190.385 327.94 219.143 351.074 249.518 351.074C279.893 351.074 308.651 327.94 308.651 291.069ZM284.135 278.695H293.625V303.157H284.135C284.135 303.157 284.135 297.274 261.273 295.66C278.599 310.653 282.841 306.743 282.841 306.743L289.383 313.271L272.057 330.559L265.514 324.031C265.514 324.031 269.433 319.799 254.083 302.511C255.701 325.322 261.92 325.322 261.92 325.322V334.791H237.404V325.322C237.404 325.322 243.623 325.322 244.917 302.188C229.244 319.476 233.809 324.031 233.809 324.031L226.943 330.559L209.617 313.271L216.482 306.743C216.482 306.743 220.724 310.975 238.374 295.66C214.865 296.952 214.865 303.157 214.865 303.157H205.375V278.695H214.865C214.865 278.695 214.865 284.9 238.374 286.192C220.724 270.554 216.482 275.109 216.482 275.109L209.617 268.258L226.943 250.971L233.809 257.821C233.809 257.821 229.244 262.053 244.593 279.341C242.976 256.207 237.404 256.207 237.404 256.207V246.738H261.92V256.207C261.92 256.207 256.024 256.207 254.407 279.341C269.433 261.731 265.514 257.821 265.514 257.821L272.057 250.971L289.383 268.258L282.841 275.109C282.841 275.109 278.599 270.876 261.273 286.192C284.135 284.578 284.135 278.695 284.135 278.695Z" fill="#ffffff"/>
</svg>
