<svg width="500" height="500" viewBox="0 0 500 500" fill="none" xmlns="http://www.w3.org/2000/svg">
<path d="M391.964 228.635V271.294H385.48C385.48 271.294 385.48 263.814 354.669 263.814C330.343 263.814 325.184 268.467 324.145 270.542C316.657 296.667 295.161 314.239 270.835 320.967C270.835 320.967 263.347 320.967 263.347 351.745C263.347 382.522 270.835 382.522 270.835 382.522V389H228.129V382.522C228.129 382.522 235.617 382.522 235.617 351.745C235.617 327.695 230.96 322.542 228.882 321.254C203.767 315.062 181.77 296.954 174.533 269.791C172.706 267.464 166.257 263.85 144.26 263.85C113.449 263.85 113.735 271.33 113.735 271.33H107V228.67H113.485C113.485 228.67 113.485 236.15 144.295 236.15C167.583 236.15 173.279 231.748 174.569 229.673C182.057 203.046 204.054 185.224 228.918 178.746C230.996 177.709 235.653 172.555 235.653 148.255C235.653 117.478 228.165 117.478 228.165 117.478V111H270.871V117.478C270.871 117.478 263.383 117.478 263.383 148.255C263.383 179.033 270.871 179.033 270.871 179.033C295.197 185.761 316.693 203.583 324.18 229.708C325.47 231.533 330.665 236.186 354.705 236.186C385.515 236.186 385.515 228.706 385.515 228.706H392L391.964 228.635ZM286.634 250.107C286.634 222.443 268.793 204.621 249.625 204.621C230.458 204.621 212.617 222.443 212.617 250.107C212.617 277.771 230.458 295.343 249.625 295.343C268.793 295.343 286.634 277.771 286.634 250.107Z" fill="#ffffff"/>
</svg>
