<svg width="500" height="500" viewBox="0 0 500 500" fill="none" xmlns="http://www.w3.org/2000/svg">
<path d="M348.964 319.166C348.964 343.963 328.939 364 304.158 364C279.377 364 259.03 343.963 259.03 319.166C259.03 303.566 266.647 289.897 278.733 281.632C276.838 238.694 266.647 205.31 249.482 182.088C232.318 205.31 222.162 238.694 220.231 281.632C231.996 289.897 239.934 303.566 239.934 319.166C239.934 343.963 219.909 364 195.128 364C170.347 364 150 343.963 150 319.166C150 303.279 158.26 289.253 170.669 281.31C173.851 223.415 196.094 184.629 229.493 161.729C213.902 150.279 194.842 144.232 173.243 144.232V135C201.207 135 226.954 139.759 249.518 150.279C272.082 139.795 297.829 135 325.792 135V144.232C304.194 144.232 285.098 150.279 269.543 161.729C302.906 184.629 325.184 223.415 328.331 281.31C340.74 289.253 349 303.243 349 319.166H348.964ZM212.614 318.522C212.614 308.968 204.354 301.347 195.128 301.347C185.259 301.347 177.642 308.968 177.642 318.522C177.642 328.684 185.259 336.341 195.128 336.341C204.354 336.341 212.614 328.72 212.614 318.522ZM321.644 318.522C321.644 308.968 313.384 301.347 304.158 301.347C294.288 301.347 286.672 308.968 286.672 318.522C286.672 328.684 294.288 336.341 304.158 336.341C313.384 336.341 321.644 328.72 321.644 318.522Z" fill="#ffffff"/>
</svg>
